<svg width="13" height="16" viewBox="0 0 13 16" fill="none" xmlns="http://www.w3.org/2000/svg">
<path d="M6.66698 3.84006C7.34916 3.84006 8.20429 3.37887 8.71352 2.76394C9.17471 2.20667 9.511 1.42841 9.511 0.650148C9.511 0.544458 9.50139 0.438768 9.48217 0.352295C8.72313 0.381119 7.81035 0.861528 7.26269 1.50527C6.83032 1.99529 6.43639 2.76394 6.43639 3.55181C6.43639 3.66711 6.4556 3.78241 6.46521 3.82084C6.51325 3.83045 6.59012 3.84006 6.66698 3.84006ZM4.26494 15.4659C5.19693 15.4659 5.61009 14.8414 6.77267 14.8414C7.95448 14.8414 8.2139 15.4467 9.25158 15.4467C10.27 15.4467 10.9522 14.5051 11.596 13.5827C12.3166 12.5258 12.6144 11.4882 12.6337 11.4401C12.5664 11.4209 10.6159 10.6234 10.6159 8.38472C10.6159 6.44387 12.1532 5.56953 12.2397 5.50227C11.2213 4.04183 9.67434 4.0034 9.25158 4.0034C8.10821 4.0034 7.17622 4.69518 6.59012 4.69518C5.95598 4.69518 5.12007 4.04183 4.13043 4.04183C2.24723 4.04183 0.335205 5.59835 0.335205 8.53845C0.335205 10.364 1.04621 12.2952 1.92055 13.5443C2.66999 14.6012 3.32334 15.4659 4.26494 15.4659Z" fill="white"/>
</svg>
