<svg width="20" height="20" viewBox="0 0 20 20" fill="none" xmlns="http://www.w3.org/2000/svg">
<path fill-rule="evenodd" clip-rule="evenodd" d="M10 0C4.486 0 0 4.486 0 10C0 15.515 4.486 20 10 20C15.513 20 20 15.515 20 10C20 4.486 15.513 0 10 0Z" fill="white"/>
<path fill-rule="evenodd" clip-rule="evenodd" d="M13.113 5.99403H11.98C11.092 5.99403 10.92 6.41303 10.92 7.03203V8.39403H13.04L12.764 10.534H10.92V16H8.72599V10.534H6.88599V8.39403H8.72599V6.82003C8.72599 4.99403 9.83799 4.00003 11.468 4.00003C12.017 3.99903 12.567 4.02703 13.113 4.08303V5.99403Z" fill="#3C5898"/>
</svg>
