<svg width="18" height="18" viewBox="0 0 18 18" fill="none" xmlns="http://www.w3.org/2000/svg">
<path fill-rule="evenodd" clip-rule="evenodd" d="M17.64 9.20501C17.64 8.56601 17.583 7.95301 17.476 7.36401H9V10.845H13.844C13.635 11.97 13.001 12.923 12.048 13.561V15.82H14.956C16.658 14.253 17.64 11.945 17.64 9.20501Z" fill="#4285F4"/>
<path fill-rule="evenodd" clip-rule="evenodd" d="M8.99997 18C11.43 18 13.467 17.194 14.956 15.82L12.048 13.561C11.242 14.101 10.211 14.421 8.99997 14.421C6.65597 14.421 4.67197 12.837 3.96397 10.71H0.95697V13.042C2.43797 15.983 5.48197 18 8.99997 18Z" fill="#34A853"/>
<path fill-rule="evenodd" clip-rule="evenodd" d="M3.964 10.71C3.784 10.17 3.682 9.59301 3.682 9.00001C3.682 8.40701 3.784 7.83001 3.964 7.29001V4.95801H0.957C0.347 6.17301 0 7.54801 0 9.00001C0 10.452 0.348 11.827 0.957 13.042L3.964 10.71Z" fill="#FBBC05"/>
<path fill-rule="evenodd" clip-rule="evenodd" d="M8.99997 3.58C10.321 3.58 11.508 4.034 12.44 4.925L15.022 2.345C13.463 0.891 11.426 0 8.99997 0C5.48197 0 2.43797 2.017 0.95697 4.958L3.96397 7.29C4.67197 5.163 6.65597 3.58 8.99997 3.58Z" fill="#EA4335"/>
</svg>
